# xmcd CD database file
# Copyright (C) 1993-1998 Ti Kan
#
# Track frame offsets:
#  150
#  20900
#  36287
#  52585
#  73875
#  90462
#  106950
#  122177
#  133657
#  149252
#  161775
#
# Disc length: 2340 seconds
#
# Revision: 2
# Processed by: cddbd v1.4PL0 Copyright (c) Steve Scherf et al.
# Submitted via: Gronk 1.4
#
DISCID=9c09220b
DTITLE=Aretha Franklin - After Hours
DYEAR=1900
DGENRE=blues
TTITLE0=This Bitter Earth
TTITLE1=Once In A Lifetime
TTITLE2=Misty
TTITLE3=(There Is) No Greater Love
TTITLE4=Unforgettable
TTITLE5=If I Should Lose You
TTITLE6=Don't Cry, Baby
TTITLE7=Just For A Thrill
TTITLE8=I'm Wandering
TTITLE9=Don't Say You're Sorry Again
TTITLE10=Look For The Silver Lining
EXTD=This compilation: 1987
EXTT0=
EXTT1=
EXTT2=
EXTT3=
EXTT4=
EXTT5=
EXTT6=
EXTT7=
EXTT8=
EXTT9=
EXTT10=
PLAYORDER=
